<svg id="_x31_px" enable-background="new 0 0 24 24" height="512" viewBox="0 0 24 24" width="512" xmlns="http://www.w3.org/2000/svg"><path d="m17.5 13c-3.584 0-6.5-2.916-6.5-6.5s2.916-6.5 6.5-6.5 6.5 2.916 6.5 6.5-2.916 6.5-6.5 6.5zm0-12c-3.033 0-5.5 2.468-5.5 5.5s2.467 5.5 5.5 5.5 5.5-2.468 5.5-5.5-2.467-5.5-5.5-5.5z"/><path d="m19.5 9.5c-.128 0-.256-.049-.354-.146l-2-2c-.093-.094-.146-.221-.146-.354v-3.5c0-.276.224-.5.5-.5s.5.224.5.5v3.293l1.854 1.854c.195.195.195.512 0 .707-.098.097-.226.146-.354.146z"/><path d="m5.5 24h-4c-.827 0-1.5-.673-1.5-1.5v-15c0-.827.673-1.5 1.5-1.5h4c.827 0 1.5.673 1.5 1.5v15c0 .827-.673 1.5-1.5 1.5zm-4-17c-.276 0-.5.225-.5.5v15c0 .275.224.5.5.5h4c.276 0 .5-.225.5-.5v-15c0-.275-.224-.5-.5-.5z"/><path d="m11.5 24h-4c-.827 0-1.5-.673-1.5-1.5v-21c0-.827.673-1.5 1.5-1.5h3c.276 0 .5.224.5.5s-.224.5-.5.5h-3c-.276 0-.5.225-.5.5v21c0 .275.224.5.5.5h4c.276 0 .5-.225.5-.5v-8c0-.276.224-.5.5-.5s.5.224.5.5v8c0 .827-.673 1.5-1.5 1.5z"/><path d="m17.5 24h-4c-.827 0-1.5-.673-1.5-1.5v-7c0-.276.224-.5.5-.5s.5.224.5.5v7c0 .275.224.5.5.5h4c.276 0 .5-.225.5-.5v-7c0-.276.224-.5.5-.5s.5.224.5.5v7c0 .827-.673 1.5-1.5 1.5z"/><path d="m6.5 20h-6c-.276 0-.5-.224-.5-.5s.224-.5.5-.5h6c.276 0 .5.224.5.5s-.224.5-.5.5z"/><path d="m6.5 17h-6c-.276 0-.5-.224-.5-.5s.224-.5.5-.5h6c.276 0 .5.224.5.5s-.224.5-.5.5z"/><path d="m18.5 17h-6c-.276 0-.5-.224-.5-.5s.224-.5.5-.5h6c.276 0 .5.224.5.5s-.224.5-.5.5z"/><path d="m9.5 20c-.276 0-.5-.224-.5-.5v-8c0-.276.224-.5.5-.5s.5.224.5.5v8c0 .276-.224.5-.5.5z"/><path d="m18.5 20h-6c-.276 0-.5-.224-.5-.5s.224-.5.5-.5h6c.276 0 .5.224.5.5s-.224.5-.5.5z"/></svg>