<svg version="1.1" xmlns="http://www.w3.org/2000/svg" xmlns:xlink="http://www.w3.org/1999/xlink" style="" xml:space="preserve" width="512" height="512"><rect id="backgroundrect" width="100%" height="100%" x="0" y="0" fill="none" stroke="none"/>























<g class="currentLayer" style=""><title>Layer 1</title><path style="fill:#FFC380;" d="M177.02094411849976,487.8068069219589 H42.3977370262146 c-7.015876293182373,0 -13.163829803466797,-4.875267505645752 -15.013602256774902,-11.905722618103027 c-1.8497718572616577,-7.030456066131592 1.0564206838607788,-14.477316856384277 7.095625400543213,-18.186222076416016 c58.65516662597656,-36.00661087036133 89.12255096435547,-78.00858306884766 93.1410903930664,-128.4053497314453 c1.401310920715332,-17.490060806274414 16.396270751953125,-31.46059226989746 33.41810607910156,-31.22925567626953 c17.368799209594727,0.2883627712726593 33.64078140258789,7.5211029052734375 45.82794189453125,20.368309020996094 c12.196479797363281,12.859042167663574 18.918216705322266,29.887508392333984 18.924428939819336,47.9467658996582 c0,0.0021519609726965427 0,0.0043039219453930855 0,0.006455882452428341 v5.432624816894531 c0,44.115196228027344 -12.577620506286621,72.24347686767578 -35.78469467163086,108.7170639038086 C187.12217092514038,485.0824416875839 182.24714040756226,487.8068069219589 177.02094411849976,487.8068069219589 z" id="svg_1" class="selected" transform="rotate(-179.594, 126.312, 392.942)"/><path style="fill:#FFCF99;" d="M373.3294496536255,83.79889702796936 c0,-25.964000701904297 -21.12299919128418,-47.0880012512207 -47.0880012512207,-47.0880012512207 H84.05044269561768 c-2.690999984741211,0 -5.333000183105469,0.722000002861023 -7.6479997634887695,2.0920000076293945 c-17.000999450683594,10.052000045776367 -34.16699981689453,18.32699966430664 -47.959999084472656,24.97800064086914 c-4.810999870300293,2.319000005722046 -9.354999542236328,4.510000228881836 -13.48799991607666,6.576000213623047 c-5.091000080108643,2.5460000038146973 -8.307000160217285,7.749000072479248 -8.307000160217285,13.442000389099121 v192.35899353027344 c0,5.692999839782715 3.2160000801086426,10.895999908447266 8.307000160217285,13.442000389099121 C75.6774263381958,319.95690178871155 126.15341663360596,323.62792229652405 185.01444721221924,323.62792229652405 c9.114999771118164,0 18.437000274658203,-0.08799999952316284 28.023000717163086,-0.17800000309944153 c10.60200023651123,-0.10000000149011612 21.562999725341797,-0.20399999618530273 33.05500030517578,-0.20399999618530273 h47.50899887084961 c25.964000701904297,0 47.0880012512207,-21.12299919128418 47.0880012512207,-47.0880012512207 c0,-8.729999542236328 -2.38700008392334,-16.91200065612793 -6.545000076293945,-23.929000854492188 c13.529000282287598,-8.281999588012695 22.575000762939453,-23.198999404907227 22.575000762939453,-40.191001892089844 c0,-8.729999542236328 -2.38700008392334,-16.91200065612793 -6.545000076293945,-23.929000854492188 c13.529000282287598,-8.281999588012695 22.575000762939453,-23.198999404907227 22.575000762939453,-40.191001892089844 c0,-12.211999893188477 -4.672999858856201,-23.35300064086914 -12.324000358581543,-31.72800064086914 C368.7574281692505,107.40891289710999 373.3294496536255,95.95590996742249 373.3294496536255,83.79889702796936 z" id="svg_2" class="" transform="rotate(-179.642, 189.988, 180.169)"/><path style="fill:#44A4EC;" d="M495.89102482795715,46.78842544555664 H367.6520416736603 c-8.295000076293945,0 -15.027999877929688,6.732999801635742 -15.027999877929688,15.027999877929688 v256.4779968261719 c0,8.305000305175781 6.732999801635742,15.027999877929688 15.027999877929688,15.218000411987305 h96.17900085449219 c18.423999786376953,-0.1899999976158142 34.40399932861328,-10.819999694824219 42.12900161743164,-26.268999099731445 c3.1760001182556152,-6.322000026702881 4.959000110626221,-13.46500015258789 4.959000110626221,-21.009000778198242 V61.81642532348633 C510.9190399646759,53.52043533325195 504.18606877326965,46.78842544555664 495.89102482795715,46.78842544555664 z" id="svg_14" class=""/><g id="svg_16">
</g><g id="svg_17">
</g><g id="svg_18">
</g><g id="svg_19">
</g><g id="svg_20">
</g><g id="svg_21">
</g><g id="svg_22">
</g><g id="svg_23">
</g><g id="svg_24">
</g><g id="svg_25">
</g><g id="svg_26">
</g><g id="svg_27">
</g><g id="svg_28">
</g><g id="svg_29">
</g><g id="svg_30">
</g></g></svg>