<svg id="Capa_1" enable-background="new 0 0 512 512" height="512" viewBox="0 0 512 512" width="512" xmlns="http://www.w3.org/2000/svg"><g><g><circle cx="256" cy="256" fill="#7ddac2" r="245.98"/><path d="m102.661 452.384s-11.362-136.039 97.541-174.227c0 0 49.166 37.179 111.598-.003 0 0 104.594 34.958 97.54 174.23-.001 0-143.401 112.219-306.679 0z" fill="#ccf5fc"/><circle cx="256" cy="186.965" fill="#ffdfe5" r="106.898"/></g><g><ellipse cx="381.506" cy="333.485" rx="9.999" ry="9.999" transform="matrix(.155 -.988 .988 .155 -6.906 658.9)"/><path d="m437.02 437.02c48.351-48.353 74.98-112.64 74.98-181.02s-26.629-132.667-74.98-181.02c-48.353-48.351-112.64-74.98-181.02-74.98s-132.667 26.629-181.02 74.98c-48.351 48.353-74.98 112.64-74.98 181.02s26.629 132.667 74.98 181.02c6.795 6.795 13.915 13.144 21.307 19.068 45.206 36.225 100.942 55.912 159.713 55.912s114.507-19.687 159.713-55.913c7.392-5.923 14.512-12.273 21.307-19.067zm-258.171 42.083v-68.801c0-5.534-4.486-10.02-10.02-10.02s-10.02 4.486-10.02 10.02v60.837c-16.295-7.37-31.76-16.627-46.13-27.659v-22.456c0-29.411 8.84-57.67 25.564-81.721 15.45-22.218 36.556-39.429 61.24-50.018 16.761 9.295 36.03 14.598 56.516 14.598 20.485 0 39.752-5.302 56.513-14.596 11.564 4.97 22.426 11.437 32.336 19.279 1.84 1.456 4.033 2.163 6.21 2.163 2.957 0 5.887-1.303 7.864-3.802 3.434-4.34 2.7-10.641-1.639-14.075-8.069-6.385-16.694-11.968-25.767-16.706 25.307-21.463 41.4-53.475 41.4-89.179 0-64.469-52.449-116.918-116.917-116.918s-116.917 52.449-116.917 116.918c0 35.699 16.088 67.706 41.389 89.17-23.37 12.175-43.443 29.814-58.68 51.727-19.07 27.425-29.151 59.639-29.151 93.161v5.233c-1.171-1.125-2.339-2.255-3.49-3.406-44.567-44.57-69.111-103.825-69.111-166.852s24.544-122.282 69.112-166.849c44.567-44.568 103.822-69.112 166.849-69.112s122.282 24.544 166.849 69.112c44.568 44.567 69.112 103.822 69.112 166.849s-24.544 122.282-69.112 166.849c-1.152 1.152-2.319 2.281-3.49 3.406v-5.233c0-17.488-2.752-34.704-8.179-51.17-1.732-5.255-7.394-8.112-12.653-6.38-5.255 1.732-8.112 7.397-6.38 12.653 4.759 14.438 7.172 29.544 7.172 44.897v22.456c-14.37 11.032-29.836 20.289-46.13 27.659v-60.837c0-5.534-4.486-10.02-10.02-10.02s-10.02 4.486-10.02 10.02v68.801c-24.492 8.447-50.481 12.858-77.151 12.858s-52.657-4.409-77.149-12.856zm77.151-195.26c-53.419 0-96.878-43.459-96.878-96.878s43.459-96.879 96.878-96.879 96.878 43.459 96.878 96.879c0 53.419-43.459 96.878-96.878 96.878z"/><path d="m289.616 223.607c-13.143 11.092-27.887 12.29-33.616 12.29-17.196 0-29.237-8.595-33.616-12.29-4.229-3.569-10.55-3.033-14.119 1.196-3.568 4.229-3.033 10.55 1.196 14.119 6.062 5.115 22.732 17.014 46.54 17.014 7.932 0 28.344-1.658 46.541-17.015 4.229-3.569 4.764-9.89 1.195-14.119-3.571-4.23-9.893-4.764-14.121-1.195z"/></g></g></svg>