<?xml version="1.0"?>
<svg xmlns="http://www.w3.org/2000/svg" id="Outline" viewBox="0 0 512 512" width="512" height="512"><path d="M455.072,32H342.624A24.039,24.039,0,0,0,320,16H192a24.039,24.039,0,0,0-22.624,16H56.928A40.974,40.974,0,0,0,16,72.928V295.072A40.974,40.974,0,0,0,56.928,336H169.376A24.039,24.039,0,0,0,192,352h24V488a8,8,0,0,0,8,8h64a8,8,0,0,0,8-8V352h24a24.039,24.039,0,0,0,22.624-16H455.072A40.974,40.974,0,0,0,496,295.072V72.928A40.974,40.974,0,0,0,455.072,32ZM184,40a8.009,8.009,0,0,1,8-8H320a8.009,8.009,0,0,1,8,8V64H184ZM168,320H56.928A24.957,24.957,0,0,1,32,295.072V72.928A24.957,24.957,0,0,1,56.928,48H168V64H88a8,8,0,0,0-8,8V296a8,8,0,0,0,8,8h80ZM280,480H232V352h48Zm48-152a8.009,8.009,0,0,1-8,8H192a8.009,8.009,0,0,1-8-8V304H328ZM96,288V80H400V288Zm384,7.072A24.957,24.957,0,0,1,455.072,320H344V304h64a8,8,0,0,0,8-8V72a8,8,0,0,0-8-8H344V48H455.072A24.957,24.957,0,0,1,480,72.928Z"/><circle cx="448" cy="184" r="16"/><circle cx="56" cy="224" r="8"/><path d="M56,144a8,8,0,0,0-8,8v40a8,8,0,0,0,16,0V152A8,8,0,0,0,56,144Z"/><path d="M152,96H120a8,8,0,0,0-8,8v32a8,8,0,0,0,16,0V112h24a8,8,0,0,0,0-16Z"/><path d="M152,256H128V232a8,8,0,0,0-16,0v32a8,8,0,0,0,8,8h32a8,8,0,0,0,0-16Z"/><path d="M376,224a8,8,0,0,0-8,8v24H344a8,8,0,0,0,0,16h32a8,8,0,0,0,8-8V232A8,8,0,0,0,376,224Z"/><path d="M376,96H344a8,8,0,0,0,0,16h24v24a8,8,0,0,0,16,0V104A8,8,0,0,0,376,96Z"/><path d="M256,144a40,40,0,1,0,40,40A40.045,40.045,0,0,0,256,144Zm0,64a24,24,0,1,1,24-24A24.028,24.028,0,0,1,256,208Z"/><circle cx="256" cy="184" r="8"/></svg>
