<svg id="Layer_1" height="512" viewBox="0 0 150 150" width="512" xmlns="http://www.w3.org/2000/svg" data-name="Layer 1"><path d="m118.485 140h-107.485a1 1 0 0 1 -1-1v-107.489a1 1 0 0 1 1-1h107.485a1 1 0 0 1 1 1v107.489a1 1 0 0 1 -1 1zm-106.485-2h105.485v-105.489h-105.485z"/><path d="m139 119.481h-20.513a1 1 0 0 1 0-2h19.513v-105.481h-105.487v19.5a1 1 0 1 1 -2 0v-20.5a1 1 0 0 1 1-1h107.487a1 1 0 0 1 1 1v107.481a1 1 0 0 1 -1 1z"/><path d="m48.859 116.754a1 1 0 0 1 -1-1v-61a1 1 0 0 1 1.6-.8l40.78 30.5a1 1 0 0 1 0 1.6l-40.78 30.5a1 1 0 0 1 -.6.2zm1-60v57.006l38.111-28.5z"/></svg>